<svg xmlns="http://www.w3.org/2000/svg" width="158" height="36" viewBox="0 0 158 36" fill="none"><g clip-path="url(#clip0_582_1965)"><path d="M34.8951 0.5L19.7451 9.26141V26.7386L34.8951 35.5L50.045 26.7386V9.26141L34.8951 0.5ZM42.5613 12.3644L34.8951 16.6995L27.3201 12.3188L34.8951 7.93807L42.5613 12.3644ZM26.4074 13.779L34.028 18.2053V27.1037L26.4074 22.6773V13.779ZM35.7621 27.1037V18.2053L43.3827 13.779V22.6773L35.7621 27.1037Z" fill="#FF6A5B"></path><path d="M1.11798 13.3227C1.86179 11.9492 2.89764 10.8859 4.21641 10.1284C5.53519 9.37092 7.05018 8.99218 8.75227 8.99218C10.9472 8.99218 12.7588 9.53976 14.1962 10.6349C15.6336 11.7301 16.5965 13.2725 17.0847 15.2529H12.2614C12.0059 14.4863 11.5769 13.884 10.97 13.4459C10.3631 13.0078 9.61016 12.7888 8.71576 12.7888C7.43806 12.7888 6.42502 13.2542 5.68121 14.176C4.9374 15.1023 4.56322 16.4166 4.56322 18.1232C4.56322 19.8299 4.9374 21.1076 5.68121 22.0385C6.42502 22.9648 7.43806 23.4257 8.71576 23.4257C10.5274 23.4257 11.7092 22.618 12.2614 20.998H17.0847C16.5965 22.9146 15.6245 24.4387 14.178 25.5658C12.7314 26.693 10.9198 27.2588 8.74771 27.2588C7.04562 27.2588 5.53062 26.8801 4.21185 26.1271C2.89308 25.3696 1.85722 24.3064 1.11341 22.9329C0.369608 21.5593 -0.00457764 19.9576 -0.00457764 18.1232C-0.00457764 16.2888 0.369608 14.6917 1.11341 13.3181L1.11798 13.3227Z" fill="white"></path><path d="M69.1238 11.0228C70.4244 12.3553 71.0723 14.2125 71.0723 16.5945V26.9759H66.6004V17.2014C66.6004 15.796 66.249 14.7145 65.5463 13.9615C64.8435 13.204 63.8853 12.8299 62.6714 12.8299C61.4576 12.8299 60.4628 13.2086 59.751 13.9615C59.0391 14.719 58.6786 15.796 58.6786 17.2014V26.9759H54.2066V9.27966H58.6786V11.4837C59.2764 10.7171 60.0384 10.1147 60.9602 9.68123C61.8866 9.24316 62.9042 9.02412 64.013 9.02412C66.1212 9.02412 67.8233 9.69035 69.1238 11.0228Z" fill="white"></path><path d="M82.6995 22.8553L87.1714 9.27966H91.9309L85.3826 26.9759H79.9524L73.4361 9.27966H78.2275L82.6995 22.8553Z" fill="white"></path><path d="M110.777 19.4694H97.8403C97.9452 20.7471 98.3924 21.7464 99.1819 22.472C99.9713 23.1975 100.939 23.558 102.089 23.558C103.75 23.558 104.932 22.8462 105.634 21.4179H110.458C109.947 23.1199 108.965 24.5209 107.519 25.6206C106.072 26.7158 104.293 27.2634 102.184 27.2634C100.482 27.2634 98.9537 26.8846 97.603 26.1317C96.2523 25.3742 95.1981 24.3064 94.4406 22.9192C93.6832 21.5365 93.309 19.9394 93.309 18.1278C93.309 16.3162 93.6831 14.6871 94.427 13.3044C95.1708 11.9218 96.2157 10.854 97.5573 10.1102C98.8989 9.36636 100.441 8.99218 102.189 8.99218C103.937 8.99218 105.379 9.35267 106.707 10.0782C108.039 10.8038 109.07 11.8305 109.805 13.1584C110.54 14.4909 110.909 16.0196 110.909 17.7399C110.909 18.3787 110.868 18.9537 110.782 19.4648L110.777 19.4694ZM106.273 16.4668C106.25 15.3168 105.835 14.395 105.027 13.7014C104.22 13.0078 103.229 12.6656 102.057 12.6656C100.948 12.6656 100.017 12.9987 99.264 13.6741C98.5065 14.3448 98.0456 15.2757 97.8722 16.4668H106.273Z" fill="white"></path><path d="M117.038 26.4785C115.888 25.9583 114.98 25.251 114.309 24.352C113.638 23.4576 113.273 22.4674 113.205 21.3814H117.709C117.795 22.0613 118.128 22.6271 118.717 23.0743C119.301 23.5215 120.031 23.7451 120.903 23.7451C121.774 23.7451 122.418 23.5763 122.902 23.234C123.381 22.8918 123.618 22.4583 123.618 21.9244C123.618 21.3494 123.326 20.9159 122.742 20.633C122.158 20.3455 121.222 20.0306 119.949 19.693C118.63 19.3735 117.549 19.045 116.709 18.7027C115.87 18.3605 115.144 17.8403 114.537 17.1375C113.93 16.4348 113.629 15.4857 113.629 14.2947C113.629 13.3136 113.912 12.4192 114.473 11.6115C115.039 10.8038 115.847 10.1649 116.901 9.69491C117.955 9.2249 119.196 8.99218 120.624 8.99218C122.733 8.99218 124.417 9.52151 125.671 10.5756C126.926 11.6297 127.62 13.0489 127.748 14.8377H123.467C123.404 14.1349 123.111 13.5737 122.587 13.163C122.066 12.7477 121.368 12.5378 120.497 12.5378C119.689 12.5378 119.064 12.6884 118.63 12.985C118.192 13.2816 117.973 13.6969 117.973 14.2308C117.973 14.8286 118.27 15.2803 118.868 15.5906C119.465 15.9009 120.392 16.2158 121.647 16.5306C122.924 16.8501 123.978 17.1786 124.809 17.5209C125.639 17.8631 126.36 18.3879 126.967 19.1043C127.574 19.8162 127.889 20.7608 127.907 21.9289C127.907 22.9511 127.625 23.8683 127.063 24.676C126.497 25.4837 125.69 26.118 124.636 26.5789C123.581 27.0398 122.354 27.2634 120.948 27.2634C119.543 27.2634 118.201 27.0033 117.051 26.483L117.038 26.4785Z" fill="white"></path><path d="M136.044 9.27966V26.9759H131.572V9.27966H136.044Z" fill="white"></path><path d="M143.71 26.1271C142.345 25.3696 141.278 24.3018 140.497 22.9146C139.722 21.5319 139.329 19.9348 139.329 18.1232C139.329 16.3116 139.731 14.7145 140.525 13.3318C141.323 11.9492 142.414 10.8768 143.801 10.1239C145.184 9.36636 146.731 8.98761 148.433 8.98761C150.135 8.98761 151.682 9.36636 153.064 10.1239C154.447 10.8814 155.538 11.9492 156.336 13.3318C157.135 14.7145 157.532 16.3116 157.532 18.1232C157.532 19.9348 157.121 21.5319 156.304 22.9146C155.483 24.2973 154.379 25.3696 152.982 26.1271C151.586 26.8846 150.025 27.2588 148.3 27.2588C146.576 27.2588 145.065 26.8801 143.701 26.1271H143.71ZM150.591 22.7731C151.303 22.3807 151.873 21.7875 152.298 21.0026C152.722 20.2132 152.937 19.2549 152.937 18.1278C152.937 16.4439 152.494 15.1525 151.609 14.249C150.724 13.3455 149.647 12.8892 148.369 12.8892C147.091 12.8892 146.019 13.3409 145.156 14.249C144.294 15.1525 143.865 16.4485 143.865 18.1278C143.865 19.807 144.285 21.103 145.129 22.0111C145.969 22.9146 147.032 23.3664 148.305 23.3664C149.113 23.3664 149.875 23.1701 150.591 22.7777V22.7731Z" fill="white"></path><path d="M131.877 6.41851C131.357 5.91656 131.093 5.29596 131.093 4.54759C131.093 3.79922 131.353 3.17862 131.877 2.68122C132.398 2.17927 133.055 1.92829 133.84 1.92829C134.625 1.92829 135.282 2.17927 135.806 2.68122C136.327 3.18318 136.587 3.80378 136.587 4.54759C136.587 5.29139 136.327 5.91656 135.806 6.41851C135.286 6.92047 134.629 7.17145 133.84 7.17145C133.05 7.17145 132.398 6.92047 131.877 6.41851Z" fill="white"></path></g><defs><clipPath id="clip0_582_1965"><rect width="157.541" height="35" fill="white" transform="translate(0 0.5)"></rect></clipPath></defs></svg>