<svg width="631" height="140" viewBox="0 0 631 140" fill="none" xmlns="http://www.w3.org/2000/svg">
<g clip-path="url(#clip0_13_367)">
<path d="M139.58 0L78.98 35.0456V104.954L139.58 140L200.179 104.954V35.0456L139.58 0ZM170.245 47.4576L139.58 64.7979L109.28 47.2751L139.58 29.7523L170.245 47.4576ZM105.629 53.1161L136.112 70.8214V106.415L105.629 88.7093V53.1161ZM143.048 106.415V70.8214L173.53 53.1161V88.7093L143.048 106.415Z" fill="#FF6A5B"/>
<path d="M4.47167 51.2908C7.4469 45.7967 11.5903 41.5437 16.8654 38.5137C22.1405 35.4837 28.2005 33.9688 35.0088 33.9688C43.7885 33.9688 51.0349 36.1591 56.7846 40.5398C62.5343 44.9205 66.3856 51.09 68.3387 59.0118H49.0453C48.0232 55.9453 46.3074 53.5359 43.8798 51.7836C41.4521 50.0313 38.4404 49.1552 34.8628 49.1552C29.752 49.1552 25.6998 51.017 22.7246 54.7041C19.7494 58.4094 18.2526 63.6663 18.2526 70.4929C18.2526 77.3195 19.7494 82.4303 22.7246 86.1539C25.6998 89.8592 29.752 91.7028 34.8628 91.7028C42.1092 91.7028 46.8367 88.472 49.0453 81.9922H68.3387C66.3856 89.6585 62.4978 95.7549 56.7116 100.263C50.9254 104.772 43.679 107.035 34.9906 107.035C28.1822 107.035 22.1223 105.52 16.8472 102.509C11.5721 99.4785 7.42865 95.2256 4.45342 89.7315C1.47819 84.2373 -0.0185547 77.8306 -0.0185547 70.4929C-0.0185547 63.1552 1.47819 56.7667 4.45342 51.2725L4.47167 51.2908Z" fill="#0D2743"/>
<path d="M276.495 42.0912C281.697 47.4211 284.289 54.85 284.289 64.3781V105.904H266.401V66.8057C266.401 61.1838 264.996 56.8579 262.185 53.8461C259.374 50.8161 255.541 49.3194 250.685 49.3194C245.83 49.3194 241.851 50.8344 239.003 53.8461C236.156 56.8761 234.714 61.1838 234.714 66.8057V105.904H216.826V35.1186H234.714V43.9348C237.105 40.8683 240.153 38.4589 243.841 36.7249C247.546 34.9726 251.616 34.0964 256.052 34.0964C264.485 34.0964 271.293 36.7614 276.495 42.0912Z" fill="#0D2743"/>
<path d="M330.798 89.421L348.686 35.1185H367.724L341.531 105.903H319.81L293.745 35.1185H312.91L330.798 89.421Z" fill="#0D2743"/>
<path d="M443.108 75.8774H391.361C391.78 80.9882 393.569 84.9856 396.727 87.8878C399.885 90.79 403.754 92.232 408.354 92.232C414.998 92.232 419.726 89.3846 422.537 83.6714H441.83C439.786 90.4797 435.861 96.0834 430.075 100.482C424.289 104.863 417.17 107.053 408.737 107.053C401.929 107.053 395.814 105.538 390.411 102.527C385.009 99.4967 380.792 95.2255 377.762 89.6766C374.732 84.146 373.235 77.7574 373.235 70.511C373.235 63.2646 374.732 56.7483 377.707 51.2177C380.683 45.687 384.862 41.4158 390.229 38.4406C395.595 35.4654 401.765 33.9686 408.756 33.9686C415.747 33.9686 421.514 35.4106 426.826 38.3128C432.156 41.215 436.281 45.322 439.22 50.6336C442.159 55.9634 443.637 62.0782 443.637 68.9595C443.637 71.5149 443.473 73.8148 443.126 75.8591L443.108 75.8774ZM425.092 63.8669C425.001 59.2672 423.34 55.5801 420.109 52.8057C416.878 50.0312 412.917 48.6622 408.226 48.6622C403.791 48.6622 400.067 49.9947 397.055 52.6961C394.025 55.3793 392.182 59.1029 391.488 63.8669H425.092Z" fill="#0D2743"/>
<path d="M468.151 103.914C463.551 101.833 459.919 99.0039 457.236 95.408C454.552 91.8305 453.092 87.8696 452.818 83.5254H470.834C471.181 86.245 472.513 88.5084 474.868 90.2972C477.204 92.086 480.125 92.9804 483.611 92.9804C487.097 92.9804 489.671 92.305 491.606 90.9361C493.522 89.5671 494.472 87.8331 494.472 85.6975C494.472 83.3976 493.303 81.6636 490.967 80.5319C488.631 79.3819 484.889 78.1225 479.796 76.7718C474.521 75.4941 470.195 74.1799 466.837 72.8109C463.478 71.4419 460.576 69.3611 458.148 66.5501C455.721 63.7392 454.516 59.9426 454.516 55.1785C454.516 51.2542 455.648 47.6766 457.893 44.4458C460.156 41.215 463.387 38.6596 467.603 36.7796C471.82 34.8995 476.784 33.9686 482.498 33.9686C490.93 33.9686 497.666 36.086 502.685 40.3024C507.705 44.5188 510.479 50.1955 510.99 57.3506H493.869C493.614 54.5397 492.445 52.2946 490.346 50.6518C488.266 48.9908 485.473 48.1512 481.987 48.1512C478.756 48.1512 476.255 48.7535 474.521 49.94C472.769 51.1264 471.893 52.7874 471.893 54.923C471.893 57.3141 473.079 59.1212 475.47 60.3624C477.861 61.6036 481.567 62.863 486.586 64.1225C491.697 65.4002 495.914 66.7144 499.236 68.0834C502.558 69.4523 505.442 71.5514 507.869 74.4171C510.297 77.2646 511.556 81.043 511.629 85.7157C511.629 89.8044 510.498 93.4732 508.253 96.704C505.989 99.9348 502.758 102.472 498.542 104.315C494.326 106.159 489.415 107.053 483.794 107.053C478.172 107.053 472.805 106.013 468.206 103.932L468.151 103.914Z" fill="#0D2743"/>
<path d="M544.175 35.1185V105.903H526.287V35.1185H544.175Z" fill="#0D2743"/>
<path d="M574.839 102.508C569.382 99.4785 565.11 95.2073 561.989 89.6584C558.886 84.1278 557.316 77.7392 557.316 70.4928C557.316 63.2464 558.923 56.8579 562.099 51.3272C565.293 45.7966 569.655 41.5072 575.204 38.4954C580.735 35.4654 586.923 33.9504 593.731 33.9504C600.539 33.9504 606.727 35.4654 612.258 38.4954C617.788 41.5254 622.151 45.7966 625.345 51.3272C628.539 56.8579 630.127 63.2464 630.127 70.4928C630.127 77.7392 628.485 84.1278 625.217 89.6584C621.932 95.1891 617.515 99.4785 611.929 102.508C606.344 105.538 600.101 107.035 593.202 107.035C586.302 107.035 580.26 105.52 574.803 102.508H574.839ZM602.365 89.0926C605.212 87.5228 607.494 85.1499 609.191 82.0104C610.889 78.8527 611.747 75.0196 611.747 70.5111C611.747 63.7757 609.976 58.6102 606.435 54.9961C602.894 51.382 598.586 49.5567 593.476 49.5567C588.365 49.5567 584.075 51.3637 580.625 54.9961C577.176 58.6102 575.46 63.794 575.46 70.5111C575.46 77.2282 577.139 82.412 580.516 86.0443C583.874 89.6584 588.127 91.4655 593.22 91.4655C596.451 91.4655 599.499 90.6806 602.365 89.1108V89.0926Z" fill="#0D2743"/>
<path d="M527.51 23.6743C525.429 21.6664 524.371 19.184 524.371 16.1906C524.371 13.1971 525.411 10.7147 527.51 8.72511C529.591 6.71729 532.219 5.71338 535.359 5.71338C538.498 5.71338 541.127 6.71729 543.226 8.72511C545.307 10.7329 546.347 13.2153 546.347 16.1906C546.347 19.1658 545.307 21.6664 543.226 23.6743C541.145 25.6821 538.517 26.686 535.359 26.686C532.201 26.686 529.591 25.6821 527.51 23.6743Z" fill="#0D2743"/>
</g>
<defs>
<clipPath id="clip0_13_367">
<rect width="630.164" height="140" fill="white"/>
</clipPath>
</defs>
</svg>
