<svg width="19" height="19" viewBox="0 0 19 19" fill="none" xmlns="http://www.w3.org/2000/svg">
<path d="M16.8889 0H2.11111C0.939444 0 0 0.95 0 2.11111V16.8889C0 18.05 0.939444 19 2.11111 19H16.8889C18.05 19 19 18.05 19 16.8889V2.11111C19 0.95 18.0606 0 16.8889 0ZM16.8889 16.8889H2.11111V4.22222H16.8889V16.8889ZM13.7222 9.5H5.27778C4.69722 9.5 4.22222 9.025 4.22222 8.44444C4.22222 7.86389 4.69722 7.38889 5.27778 7.38889H13.7222C14.3028 7.38889 14.7778 7.86389 14.7778 8.44444C14.7778 9.025 14.3028 9.5 13.7222 9.5ZM9.5 13.7222H5.27778C4.69722 13.7222 4.22222 13.2472 4.22222 12.6667C4.22222 12.0861 4.69722 11.6111 5.27778 11.6111H9.5C10.0806 11.6111 10.5556 12.0861 10.5556 12.6667C10.5556 13.2472 10.0806 13.7222 9.5 13.7222Z" fill="#FF6A5B"/>
</svg>
