<svg width="20" height="20" viewBox="0 0 20 20" fill="none" xmlns="http://www.w3.org/2000/svg">
<path fill-rule="evenodd" clip-rule="evenodd" d="M14.717 4.64676C14.6092 4.64683 14.5048 4.60966 14.4213 4.54154C13.325 3.64747 11.9862 3.10188 10.5772 2.97498C10.4606 2.96448 10.3521 2.91071 10.2731 2.82426C10.1941 2.73781 10.1503 2.62492 10.1503 2.50781V0.468072C10.1505 0.404077 10.1638 0.3408 10.1894 0.282126C10.2149 0.223451 10.2522 0.170618 10.2989 0.12687C10.3456 0.0831216 10.4008 0.0493811 10.461 0.0277198C10.5212 0.00605855 10.5852 -0.00306635 10.6491 0.000905288C12.7983 0.131461 14.8467 0.957829 16.4849 2.3552C16.5343 2.39721 16.5744 2.44898 16.6028 2.50727C16.6312 2.56556 16.6472 2.62909 16.6499 2.69388C16.6525 2.75866 16.6417 2.82329 16.6181 2.88369C16.5946 2.94409 16.5587 2.99896 16.5129 3.04483L15.048 4.50973C15.0045 4.55338 14.9527 4.58797 14.8958 4.61153C14.8388 4.63509 14.7786 4.64691 14.717 4.64676ZM17.0083 9.26103C17.0214 9.37569 17.0763 9.48151 17.1625 9.55825C17.2486 9.635 17.3601 9.67729 17.4755 9.67704H19.5199C19.5847 9.67691 19.6487 9.66338 19.708 9.63732C19.7673 9.61125 19.8205 9.57321 19.8644 9.52557C19.9083 9.47794 19.9418 9.42175 19.9629 9.36053C19.984 9.2993 19.9922 9.23438 19.9871 9.16983C19.8172 7.0231 18.9535 4.98993 17.5262 3.37741C17.4839 3.32921 17.4321 3.29021 17.374 3.26282C17.316 3.23542 17.253 3.22021 17.1889 3.21813C17.1248 3.21604 17.0609 3.22713 17.0012 3.2507C16.9415 3.27427 16.8873 3.30982 16.8419 3.35516L15.3797 4.81761C15.2962 4.90091 15.2471 5.01267 15.2424 5.13054C15.2377 5.24841 15.2777 5.36372 15.3543 5.45341C16.2733 6.52911 16.8493 7.8552 17.0083 9.26103ZM13.5348 5.70167C13.6243 5.64979 13.7285 5.62893 13.831 5.64234C13.9336 5.65575 14.0289 5.70267 14.1021 5.77581C14.1752 5.84895 14.2222 5.94421 14.2356 6.04678C14.2491 6.14936 14.2283 6.2535 14.1764 6.34302L10.9574 11.8896C10.7931 12.1797 10.5628 12.4271 10.2853 12.6118C10.0078 12.7966 9.69067 12.9135 9.35964 12.9532C9.26125 12.9661 9.16212 12.9726 9.06288 12.9728C8.78027 12.9731 8.50045 12.9169 8.23984 12.8075C7.97923 12.6982 7.74309 12.5379 7.54526 12.3361L7.54303 12.3337C7.30758 12.0984 7.12934 11.8122 7.02207 11.4971C6.9148 11.182 6.88137 10.8465 6.92437 10.5165C6.96737 10.1864 7.08564 9.87067 7.27005 9.59359C7.45446 9.31651 7.70009 9.08552 7.98795 8.91845L13.5357 5.70056L13.5348 5.70167ZM19.533 10.1295H17.5071C17.3881 10.1296 17.2737 10.1749 17.1867 10.2561C17.0998 10.3373 17.047 10.4484 17.0388 10.5671C16.9453 11.9258 16.4647 13.2293 15.6538 14.3236C14.843 15.4178 13.7358 16.2571 12.4631 16.742C11.1905 17.227 9.80554 17.3375 8.4721 17.0604C7.13866 16.7833 5.91244 16.1302 4.93839 15.1783C3.96434 14.2264 3.28319 13.0156 2.97545 11.6888C2.66772 10.3621 2.74627 8.97507 3.20182 7.69159C3.65737 6.40811 4.47087 5.28189 5.54617 4.44607C6.62146 3.61025 7.91357 3.09977 9.26977 2.97498C9.38641 2.96448 9.4949 2.91071 9.5739 2.82426C9.65291 2.73781 9.6967 2.62492 9.69667 2.50781V0.480974C9.69661 0.416195 9.68313 0.35213 9.65709 0.292816C9.63105 0.233502 9.593 0.180224 9.54535 0.136337C9.49771 0.0924506 9.44148 0.0589068 9.38023 0.0378188C9.31898 0.0167308 9.25403 0.00855552 9.18946 0.013808C7.27818 0.171134 5.4523 0.874141 3.92902 2.03921C2.40574 3.20428 1.24917 4.78237 0.596877 6.58577C-0.055418 8.38918 -0.175982 10.342 0.249528 12.2119C0.675037 14.0819 1.62871 15.7903 2.99711 17.1339C4.36551 18.4775 6.09104 19.3997 7.96846 19.791C9.84588 20.1822 11.7962 20.0259 13.5874 19.3408C15.3786 18.6556 16.9352 17.4703 18.0722 15.926C19.2093 14.3817 19.8787 12.5432 20.0011 10.6294C20.0051 10.5655 19.996 10.5015 19.9743 10.4412C19.9527 10.381 19.919 10.3258 19.8752 10.2791C19.8314 10.2323 19.7786 10.195 19.7199 10.1695C19.6612 10.1439 19.5979 10.1306 19.5339 10.1304L19.533 10.1295Z" fill="#FF6A5B"/>
</svg>
